<?xml version="1.0" standalone="no"?>
<!DOCTYPE svg PUBLIC "-//W3C//DTD SVG 20010904//EN"
 "http://www.w3.org/TR/2001/REC-SVG-20010904/DTD/svg10.dtd">
<svg version="1.0" xmlns="http://www.w3.org/2000/svg"
 width="738.000000pt" height="1024.000000pt" viewBox="0 0 738.000000 1024.000000"
 preserveAspectRatio="xMidYMid meet">

<g transform="translate(0.000000,1024.000000) scale(0.100000,-0.100000)"
fill="#000000" stroke="none">
<path d="M2480 7700 c-47 -10 -124 -32 -171 -49 -128 -47 -339 -173 -339 -202
0 -17 19 -9 83 36 142 99 365 186 516 201 50 5 71 11 71 20 0 19 -54 17 -160
-6z"/>
<path d="M5020 7708 c0 -9 22 -18 70 -26 84 -14 248 -66 312 -98 31 -16 49
-20 54 -13 9 16 -4 25 -86 59 -79 33 -223 73 -302 85 -38 6 -48 4 -48 -7z"/>
<path d="M3760 7674 c-69 -7 -128 -13 -132 -13 -5 -1 -8 -6 -8 -12 0 -9 28
-10 103 -5 56 3 152 9 212 12 128 6 158 11 150 24 -8 13 -171 10 -325 -6z"/>
<path d="M2560 7449 c-116 -26 -200 -54 -295 -100 -112 -53 -229 -129 -216
-142 6 -6 38 8 93 41 219 131 412 192 613 192 78 0 95 3 95 15 0 22 -181 19
-290 -6z"/>
<path d="M5040 7456 c0 -9 26 -20 78 -31 180 -40 322 -98 416 -170 63 -48 86
-32 24 17 -92 74 -208 125 -397 173 -116 29 -121 30 -121 11z"/>
<path d="M4150 7326 c0 -14 -39 -16 -330 -16 -213 0 -330 -4 -330 -10 0 -6
118 -10 335 -10 238 0 335 3 335 11 0 8 68 9 243 5 362 -10 649 -54 866 -132
112 -41 122 -43 128 -28 5 15 -129 67 -256 99 -225 57 -440 82 -748 90 -215 5
-243 4 -243 -9z"/>
<path d="M2747 7289 c-199 -31 -548 -127 -581 -160 -27 -25 17 -18 141 24 291
97 490 127 837 127 221 0 256 2 256 15 0 24 -493 20 -653 -6z"/>
<path d="M2785 7040 c-214 -24 -594 -146 -578 -186 4 -10 15 -8 51 10 75 38
247 93 382 122 105 22 158 27 328 32 144 3 202 8 199 16 -4 13 -275 18 -382 6z"/>
<path d="M3540 6995 c0 -12 20 -15 118 -15 194 0 462 13 462 22 0 4 -130 8
-290 8 -251 0 -290 -2 -290 -15z"/>
<path d="M4743 6947 c-10 -17 11 -21 149 -29 146 -8 225 -19 302 -42 38 -12
46 -12 50 0 6 16 -64 39 -164 54 -95 15 -331 27 -337 17z"/>
<path d="M2860 6807 c0 -16 165 -27 429 -28 86 0 192 -4 236 -8 44 -4 87 -4
95 0 33 17 -45 29 -220 34 -99 3 -261 7 -360 10 -148 4 -180 3 -180 -8z"/>
<path d="M4600 6757 c0 -12 22 -16 108 -21 59 -4 145 -12 192 -18 47 -6 87
-10 90 -10 12 1 9 20 -4 25 -24 9 -162 25 -278 32 -91 5 -108 4 -108 -8z"/>
<path d="M2780 6640 c-179 -11 -247 -24 -327 -60 -122 -55 -255 -170 -368
-315 -97 -126 -107 -142 -91 -148 8 -3 35 25 72 76 82 114 245 275 324 322 93
54 160 74 285 86 122 12 409 17 524 9 50 -3 75 -1 78 6 2 6 -13 14 -34 18 -71
11 -318 15 -463 6z"/>
<path d="M4501 6581 c-37 -4 -66 -11 -68 -18 -3 -9 43 -11 199 -6 429 12 616
-41 748 -212 28 -36 47 -52 53 -46 6 6 -3 27 -27 60 -93 127 -214 188 -425
217 -104 13 -354 16 -480 5z"/>
<path d="M3148 6484 c-17 -17 -5 -24 41 -24 38 0 56 -6 79 -25 39 -33 55 -13
19 23 -19 19 -39 26 -79 30 -29 2 -56 0 -60 -4z"/>
<path d="M3632 6353 c-15 -149 -15 -164 1 -157 14 5 44 245 32 264 -15 24 -21
3 -33 -107z"/>
<path d="M4578 6411 c-64 -9 -119 -19 -123 -23 -16 -16 44 -18 157 -4 68 8
143 17 168 20 25 3 46 5 48 5 1 1 2 6 2 11 0 14 -114 10 -252 -9z"/>
<path d="M2335 6376 c-68 -46 -179 -161 -170 -176 4 -7 37 18 90 69 46 44 102
89 124 101 23 11 39 25 36 30 -10 17 -28 11 -80 -24z"/>
<path d="M2917 6403 c-10 -16 -29 -183 -23 -198 3 -8 16 -15 29 -15 22 0 25 5
30 53 9 96 -13 197 -36 160z"/>
<path d="M2740 6378 c-1 -21 -2 -21 -11 -5 -5 9 -17 17 -25 17 -17 0 -29 -28
-41 -96 l-8 -49 -5 60 c-4 45 -9 59 -19 57 -8 -2 -17 1 -20 7 -4 6 -12 5 -22
-2 -12 -9 -17 -37 -21 -123 l-5 -112 64 31 c45 21 86 31 134 35 l69 5 0 52 c0
57 -23 115 -46 115 -8 0 -14 7 -14 15 0 8 -7 15 -15 15 -9 0 -15 -9 -15 -22z"/>
<path d="M3001 6353 c-6 -21 -17 -68 -24 -105 l-14 -67 29 -12 c16 -6 30 -10
32 -8 7 8 26 211 20 220 -12 21 -34 7 -43 -28z"/>
<path d="M2840 6285 c0 -66 3 -85 14 -85 18 0 26 31 26 108 0 55 -2 62 -20 62
-18 0 -20 -7 -20 -85z"/>
<path d="M3066 6263 c-24 -101 -25 -109 -9 -120 18 -14 43 -17 43 -7 0 4 7 51
16 106 12 77 13 102 4 114 -7 7 -16 14 -20 14 -5 0 -20 -48 -34 -107z"/>
<path d="M2518 6313 c-11 -13 -18 -51 -23 -128 l-7 -110 21 21 c19 17 23 36
28 127 3 59 4 107 1 107 -3 0 -12 -8 -20 -17z"/>
<path d="M4137 6223 c-22 -139 -23 -253 -2 -253 12 0 15 16 15 83 1 45 7 118
15 162 18 99 18 115 2 115 -9 0 -19 -34 -30 -107z"/>
<path d="M3160 6318 c0 -2 -7 -41 -15 -88 -21 -121 -22 -120 42 -160 30 -19
87 -61 125 -93 56 -47 75 -57 94 -53 37 10 94 65 93 90 -2 20 -2 20 -6 -1 -7
-35 -23 -27 -23 11 0 25 -6 38 -24 50 l-25 16 -4 -53 -3 -52 -2 60 c-2 58 -4
63 -47 105 -28 27 -45 39 -46 30 -1 -8 -4 -4 -8 9 -3 13 -16 30 -28 38 -21 14
-22 13 -31 -39 l-10 -53 -1 66 c-1 64 -3 68 -35 93 -31 23 -46 31 -46 24z"/>
<path d="M5154 6309 c-4 -7 5 -21 22 -33 61 -44 95 -80 134 -139 22 -34 41
-66 43 -71 2 -5 9 -6 15 -2 16 10 -23 83 -77 146 -51 59 -127 114 -137 99z"/>
<path d="M2427 6232 c-26 -26 -47 -53 -47 -60 0 -7 -4 -11 -8 -8 -9 6 -252
-257 -252 -273 0 -10 24 -21 45 -21 8 0 16 17 20 43 12 72 24 78 25 11 0 -46
4 -63 15 -68 10 -4 19 2 25 17 7 18 9 19 9 4 1 -26 22 -16 47 21 12 17 23 29
26 27 2 -2 35 26 72 64 l67 68 6 111 c3 62 4 112 2 112 -3 0 -26 -22 -52 -48z"/>
<path d="M1542 6210 c0 -19 2 -27 5 -17 2 9 2 25 0 35 -3 9 -5 1 -5 -18z"/>
<path d="M4653 6195 c-29 -8 -71 -24 -93 -35 -37 -19 -40 -23 -40 -63 0 -23
-3 -60 -7 -81 l-6 -39 49 7 c27 3 58 8 69 10 11 3 50 5 88 5 l67 1 0 105 0
105 -37 -1 c-21 0 -62 -7 -90 -14z"/>
<path d="M4790 6105 c0 -87 3 -105 15 -105 12 0 15 18 15 105 0 87 -3 105 -15
105 -12 0 -15 -18 -15 -105z"/>
<path d="M4845 6188 c-3 -7 -6 -53 -7 -101 l-3 -88 55 -19 c30 -11 58 -19 61
-20 6 0 29 160 29 204 0 21 -5 26 -25 26 -27 0 -26 2 -50 -115 l-15 -70 6 98
5 97 -26 0 c-14 0 -28 -6 -30 -12z"/>
<path d="M5000 6122 c-6 -31 -17 -83 -24 -114 l-13 -58 33 -25 c18 -14 35 -25
37 -25 2 0 7 51 10 113 3 62 9 120 12 128 4 10 -3 19 -19 27 -24 11 -25 10
-36 -46z"/>
<path d="M1536 6043 c-3 -65 -8 -144 -11 -175 -3 -32 -1 -58 4 -58 8 0 26 338
18 347 -3 2 -8 -49 -11 -114z"/>
<path d="M5064 6010 c-13 -79 -16 -124 -10 -130 16 -16 24 -12 29 13 3 14 5 8
6 -15 1 -25 8 -42 24 -55 12 -10 30 -31 40 -46 22 -34 28 -30 37 20 l8 38 1
-45 c2 -76 32 -95 45 -27 11 59 -82 294 -137 345 l-23 21 -20 -119z"/>
<path d="M4468 6108 c-12 -9 -19 -36 -23 -90 -8 -81 -2 -93 29 -59 13 15 16
34 14 90 -3 66 -4 71 -20 59z"/>
<path d="M4375 6038 c-27 -23 -85 -75 -127 -117 -71 -69 -78 -79 -78 -115 l0
-39 23 20 c22 20 163 103 175 103 4 0 20 10 35 23 27 21 28 25 25 94 l-3 73
-50 -42z"/>
<path d="M2668 6044 c-16 -8 -28 -18 -28 -23 0 -17 14 -20 34 -6 14 11 47 15
108 15 72 0 88 3 88 15 0 21 -163 21 -202 -1z"/>
<path d="M3557 6033 c-3 -5 -8 -29 -11 -55 -4 -26 -16 -58 -27 -72 -30 -38
-19 -57 13 -24 27 26 48 83 48 131 0 25 -13 37 -23 20z"/>
<path d="M3940 6001 c0 -8 93 -71 105 -71 3 0 5 7 5 15 0 8 -20 26 -43 40 -46
26 -67 31 -67 16z"/>
<path d="M1065 5950 c-11 -12 -19 -40 -21 -72 l-4 -53 17 45 c24 62 29 68 63
75 45 10 46 25 2 25 -26 0 -45 -7 -57 -20z"/>
<path d="M5775 5764 c8 -218 -5 -315 -53 -418 -16 -34 -32 -83 -36 -108 -4
-26 -25 -109 -47 -185 -44 -156 -44 -153 -26 -153 13 0 88 247 102 335 4 22
17 63 30 90 37 77 55 160 61 280 7 145 -7 337 -24 343 -11 3 -12 -32 -7 -184z"/>
<path d="M2735 5902 c-112 -34 -180 -79 -385 -256 -69 -60 -136 -113 -150
-118 -25 -11 -163 -16 -189 -7 -7 2 -15 -1 -18 -8 -3 -7 13 -16 38 -23 50 -14
183 2 208 24 9 7 70 59 135 116 133 114 223 183 276 210 45 23 152 50 197 50
96 0 185 -63 253 -180 45 -78 100 -130 135 -130 35 0 31 17 -7 34 -40 17 -64
43 -111 122 -40 66 -105 132 -158 160 -49 25 -151 28 -224 6z"/>
<path d="M4497 5865 c-58 -24 -157 -90 -157 -104 0 -21 16 -18 50 9 21 17 69
45 107 63 66 31 71 32 190 30 67 -1 131 -7 142 -12 14 -8 22 -8 27 0 16 26
-20 34 -159 36 -131 3 -146 1 -200 -22z"/>
<path d="M1040 5788 c1 -66 78 -323 166 -557 39 -101 62 -184 80 -280 48 -261
96 -423 153 -513 34 -53 79 -77 116 -60 23 11 24 10 40 -66 42 -197 67 -270
144 -429 l79 -162 -186 -91 c-245 -120 -631 -333 -652 -360 -3 -4 -12 -9 -21
-12 -42 -16 -763 -494 -820 -545 -16 -13 -13 -20 35 -84 107 -144 192 -294
353 -619 205 -413 253 -502 357 -660 212 -320 471 -564 819 -769 157 -92 241
-129 469 -206 567 -193 917 -285 1323 -346 118 -18 199 -22 514 -26 460 -6
657 11 1076 93 310 61 382 81 504 140 483 231 855 543 1115 934 139 209 225
383 396 805 106 261 186 431 239 508 17 25 31 49 31 54 -1 4 -103 56 -228 115
-125 59 -373 177 -552 261 -179 85 -410 195 -515 245 -104 49 -280 132 -390
185 -110 52 -244 115 -297 140 -54 25 -98 52 -98 59 0 33 54 274 85 378 19 63
55 194 80 290 25 96 53 199 61 228 l16 53 39 -36 c86 -78 144 -25 198 180 38
143 102 525 92 543 -13 24 -15 18 -51 -193 -41 -233 -67 -357 -92 -425 -44
-117 -82 -137 -137 -75 -34 39 -38 63 -18 121 26 73 29 94 13 94 -13 0 -24
-29 -72 -195 -8 -27 -41 -153 -75 -280 -33 -126 -73 -273 -89 -325 -16 -52
-39 -144 -50 -205 -45 -234 -129 -484 -218 -645 -74 -135 -202 -334 -392 -610
-108 -157 -268 -391 -356 -520 -138 -204 -446 -597 -577 -737 l-30 -32 -230
342 c-204 305 -362 556 -354 564 2 1 57 -5 123 -13 155 -21 805 -13 919 11
202 43 336 173 489 475 32 63 74 136 92 162 23 32 30 49 22 54 -18 12 -58 -44
-132 -188 -164 -316 -274 -427 -473 -474 -103 -25 -886 -26 -988 -3 -245 58
-332 108 -440 252 -60 79 -98 155 -147 292 -41 115 -51 134 -62 116 -7 -11 46
-170 91 -271 28 -65 36 -72 -134 120 -175 199 -275 320 -352 428 -145 206
-187 298 -237 513 -30 130 -43 167 -107 296 -104 208 -124 263 -169 467 -89
411 -98 484 -98 869 0 222 -2 257 -15 257 -13 0 -15 -34 -15 -242 0 -297 13
-474 46 -637 20 -99 22 -126 12 -133 -41 -25 -85 11 -128 105 -37 81 -72 213
-111 417 -23 122 -45 202 -84 305 -69 182 -131 377 -152 481 -11 52 -22 84
-30 84 -7 0 -13 -6 -13 -12z m819 -2203 c19 -86 19 -89 2 -114 -30 -42 -97
-181 -125 -259 -87 -244 -129 -567 -106 -827 23 -263 77 -462 181 -665 54
-107 166 -271 189 -278 5 -2 10 8 10 21 0 58 169 316 270 410 184 175 373 170
648 -15 177 -119 516 -442 675 -643 l87 -109 0 -206 c1 -149 24 -802 29 -827
1 -2 8 -3 17 -3 15 0 16 15 10 158 -19 445 -26 638 -26 749 l0 122 78 60 c43
32 121 99 173 148 175 165 412 303 619 359 88 24 271 24 360 0 97 -26 255
-105 348 -175 107 -80 241 -208 248 -237 3 -13 10 -22 14 -19 14 8 87 240 119
375 50 208 65 341 65 575 0 232 -15 360 -64 550 -75 291 -181 497 -333 648
-48 49 -77 85 -74 95 2 10 9 16 17 14 7 -2 441 -206 964 -454 523 -248 979
-464 1014 -481 l63 -29 -21 -32 c-46 -67 -164 -323 -260 -561 -170 -419 -314
-689 -487 -908 -81 -103 -283 -307 -383 -386 -273 -218 -613 -407 -818 -455
-848 -198 -1528 -215 -2247 -55 -394 87 -1078 307 -1270 408 -261 137 -445
270 -635 461 -235 236 -348 408 -596 910 -195 393 -261 513 -370 673 -41 59
-74 109 -74 112 0 7 463 322 647 439 98 62 252 157 343 210 199 117 661 349
672 338 4 -4 17 -48 27 -97z m31 -178 c0 -20 94 -207 140 -282 62 -98 159
-230 257 -349 145 -175 480 -532 546 -582 68 -52 162 -98 220 -109 35 -7 41
-14 72 -75 38 -76 111 -198 200 -335 32 -49 82 -127 112 -172 29 -46 51 -83
49 -83 -2 0 -55 60 -117 133 -301 351 -598 603 -804 683 -95 37 -207 39 -280
6 -136 -63 -236 -258 -280 -548 -9 -60 -20 -125 -24 -144 l-7 -35 -56 85
c-110 168 -178 338 -224 554 -20 96 -27 161 -31 317 -8 269 18 467 87 680 40
120 116 282 130 274 5 -3 10 -12 10 -18z m3461 -64 c125 -141 234 -370 298
-621 46 -183 64 -332 64 -532 0 -254 -29 -462 -98 -699 -57 -199 -48 -194
-106 -50 -94 234 -187 386 -302 497 -87 82 -157 115 -259 120 -130 7 -257 -45
-417 -170 -36 -28 -183 -167 -326 -307 -372 -366 -396 -387 -244 -206 113 134
206 260 412 561 l187 272 117 22 c144 26 203 46 278 91 45 26 62 44 77 79 71
159 96 248 128 445 25 156 38 205 97 354 33 83 44 124 41 152 -2 22 0 39 3 39
4 0 26 -21 50 -47z"/>
<path d="M3890 1069 c-61 -26 -100 -85 -100 -154 0 -123 122 -199 230 -143
114 59 124 203 18 281 -31 23 -111 32 -148 16z m130 -21 c128 -66 94 -259 -50
-283 -33 -6 -51 -2 -87 17 -109 56 -112 211 -5 268 49 25 88 25 142 -2z"/>
<path d="M3894 969 c-11 -19 8 -27 63 -25 44 1 58 5 58 16 0 11 -14 15 -58 16
-31 1 -60 -2 -63 -7z"/>
<path d="M3898 893 c-17 -20 -2 -27 57 -28 53 -1 79 15 52 32 -20 12 -98 9
-109 -4z"/>
<path d="M2748 5780 c-150 -26 -239 -79 -361 -214 -110 -121 -191 -164 -317
-170 -70 -4 -91 -20 -38 -30 83 -15 224 36 308 111 l47 42 84 -34 c130 -52
229 -69 384 -62 71 3 163 13 203 22 40 9 75 15 78 12 7 -7 -124 -46 -210 -62
-146 -28 -317 -13 -464 40 -50 18 -68 21 -74 12 -5 -8 11 -19 50 -34 111 -42
200 -58 337 -57 143 0 239 19 388 77 65 26 78 34 73 50 -3 13 0 17 10 13 11
-4 14 -1 12 12 -2 10 -14 18 -31 20 -20 2 -61 34 -134 104 -143 135 -223 170
-345 148z m-140 -114 c-13 -63 4 -118 55 -173 l41 -44 -30 6 c-108 24 -156 39
-209 64 l-60 28 61 61 c52 51 122 100 145 102 4 0 2 -20 -3 -44z m188 -7 c10
-17 -23 -46 -37 -32 -7 7 -9 19 -6 27 7 18 33 21 43 5z m382 -151 c4 -9 -222
-58 -272 -58 -18 0 -16 3 11 23 45 32 82 93 89 149 l7 49 81 -78 c44 -43 82
-81 84 -85z"/>
<path d="M5936 5753 c-3 -21 -6 -66 -6 -100 0 -49 3 -63 15 -63 12 0 15 18 15
100 0 100 -12 132 -24 63z"/>
<path d="M2260 5764 c0 -11 9 -14 37 -12 52 4 56 28 4 28 -30 0 -41 -4 -41
-16z"/>
<path d="M4549 5726 c-31 -7 -82 -27 -112 -44 -68 -38 -237 -162 -237 -173 0
-22 24 -11 115 57 157 117 229 144 374 144 146 -1 215 -33 345 -162 54 -54
112 -106 129 -115 41 -21 183 -29 244 -14 56 14 120 58 105 73 -6 6 -23 0 -46
-16 -21 -14 -58 -28 -83 -32 -65 -10 -190 2 -218 20 -13 8 -65 58 -117 109
-100 101 -163 139 -257 157 -70 13 -171 11 -242 -4z"/>
<path d="M5422 5643 c-27 -31 -39 -50 -32 -57 11 -11 90 66 90 89 0 25 -13 17
-58 -32z"/>
<path d="M2080 5665 c0 -12 14 -15 76 -15 56 0 75 3 72 13 -3 8 -30 13 -76 15
-60 2 -72 0 -72 -13z"/>
<path d="M4527 5646 c-113 -47 -300 -176 -305 -212 -6 -42 168 -142 294 -169
82 -17 136 -18 224 -5 122 19 340 103 340 131 0 14 -12 10 -120 -35 -227 -94
-411 -99 -580 -14 -34 16 -60 32 -58 34 2 2 46 -11 98 -28 88 -29 106 -32 235
-32 128 -1 147 1 220 27 44 15 104 41 133 57 l53 29 47 -45 c65 -62 137 -96
221 -102 85 -6 162 4 155 21 -3 9 -32 11 -99 9 -88 -4 -99 -2 -157 26 -58 27
-150 108 -193 169 -20 29 -128 109 -187 139 -41 21 -61 24 -155 24 -91 0 -117
-4 -166 -24z m-45 -106 c-6 -76 8 -110 67 -162 l46 -41 -40 7 c-22 3 -100 25
-173 48 l-134 42 29 24 c27 22 202 142 207 142 1 0 0 -27 -2 -60z m517 -39
l44 -44 -24 -18 c-22 -16 -138 -66 -197 -84 -20 -6 -18 -1 15 32 45 45 69 113
60 168 l-6 36 32 -23 c18 -13 52 -42 76 -67z m-311 31 c2 -14 -2 -22 -11 -22
-19 0 -40 26 -32 40 11 18 40 6 43 -18z"/>
<path d="M3395 5589 c11 -44 11 -87 1 -121 -6 -22 -5 -28 7 -28 9 0 19 17 27
44 10 37 10 53 -1 87 -18 54 -46 69 -34 18z"/>
<path d="M5890 5408 c-18 -95 -35 -180 -37 -189 -3 -9 2 -16 10 -16 11 0 24
45 50 176 32 162 36 201 18 201 -4 0 -22 -78 -41 -172z"/>
<path d="M3680 5555 c0 -12 18 -15 105 -15 87 0 105 3 105 15 0 12 -18 15
-105 15 -87 0 -105 -3 -105 -15z"/>
<path d="M3509 5543 c-1 -5 0 -21 1 -36 1 -15 -4 -60 -10 -98 -10 -55 -22 -85
-57 -137 -25 -37 -47 -70 -49 -73 -2 -4 2 -9 10 -12 14 -5 66 63 100 130 32
64 43 233 15 233 -5 0 -9 -3 -10 -7z"/>
<path d="M4004 5363 c3 -49 11 -187 16 -308 11 -229 19 -305 46 -417 10 -44
21 -68 30 -68 17 0 17 5 4 50 -25 84 -41 235 -55 510 -8 162 -15 301 -15 308
0 6 -7 12 -16 12 -14 0 -15 -11 -10 -87z"/>
<path d="M3545 5333 c-19 -259 -86 -671 -131 -815 -3 -12 0 -18 10 -18 18 0
26 28 66 223 36 177 66 383 79 550 13 158 14 147 -3 147 -11 0 -16 -22 -21
-87z"/>
<path d="M1401 5312 c-22 -57 -31 -110 -31 -178 0 -80 15 -134 37 -134 11 0
13 5 7 18 -4 9 -9 55 -11 102 -3 65 0 100 15 147 15 48 17 63 7 67 -8 3 -18
-7 -24 -22z"/>
<path d="M3235 5280 c-126 -162 -282 -229 -527 -230 -102 0 -118 -2 -118 -16
0 -15 16 -16 148 -12 205 7 318 46 434 147 63 56 134 149 121 162 -6 6 -26
-11 -58 -51z"/>
<path d="M4123 5291 c9 -35 88 -169 126 -213 36 -42 115 -98 138 -98 27 0 11
26 -28 45 -55 26 -112 92 -169 194 -45 83 -80 119 -67 72z"/>
<path d="M4326 5231 c-8 -12 56 -54 132 -88 167 -74 336 -68 534 17 101 43
106 46 92 60 -7 7 -35 -1 -85 -25 -207 -98 -385 -99 -571 -3 -46 24 -86 44
-90 46 -3 2 -9 -2 -12 -7z"/>
<path d="M4885 5219 c-44 -10 -87 -16 -96 -13 -9 2 -19 -2 -23 -11 -4 -12 4
-15 42 -15 26 0 63 4 82 9 19 5 47 12 63 15 15 4 27 13 27 21 0 18 6 18 -95
-6z"/>
<path d="M2532 5220 c6 -18 43 -28 150 -40 129 -15 323 8 296 36 -3 3 -51 0
-106 -6 -96 -11 -170 -7 -306 16 -30 6 -38 4 -34 -6z"/>
<path d="M5345 5051 c-65 -34 -75 -36 -162 -36 -65 0 -93 -4 -93 -12 0 -16 80
-27 143 -19 58 8 209 74 204 90 -6 17 -20 14 -92 -23z"/>
<path d="M3058 4949 c-27 -27 -78 -63 -122 -85 -42 -20 -76 -43 -76 -51 0 -18
1 -18 87 25 84 40 191 131 179 150 -10 17 -16 14 -68 -39z"/>
<path d="M2234 4931 c-99 -70 -189 -155 -180 -169 5 -9 30 7 79 51 40 35 100
83 135 106 34 24 62 47 62 52 0 19 -30 7 -96 -40z"/>
<path d="M4475 4940 c-10 -16 5 -24 90 -52 61 -20 90 -23 227 -23 111 0 161 4
169 12 21 21 6 24 -63 14 -119 -17 -280 5 -399 54 -10 3 -20 1 -24 -5z"/>
<path d="M2385 4798 c-74 -76 -111 -122 -138 -174 -41 -80 -42 -84 -24 -84 6
0 27 30 46 68 25 48 63 96 138 171 57 57 103 108 103 113 0 23 -32 -1 -125
-94z"/>
<path d="M4560 4814 c0 -9 24 -26 58 -42 54 -25 66 -27 201 -27 115 0 145 3
149 14 4 11 -12 13 -89 9 -119 -7 -199 4 -262 36 -58 31 -57 30 -57 10z"/>
<path d="M4686 4601 c-3 -4 4 -17 15 -27 19 -17 37 -19 153 -18 99 1 141 5
170 18 30 12 37 19 28 28 -9 9 -18 8 -39 -1 -16 -7 -78 -15 -139 -18 -91 -5
-117 -3 -144 11 -39 19 -37 19 -44 7z"/>
<path d="M5195 4348 c-4 -18 -22 -66 -41 -107 -31 -68 -35 -91 -15 -91 14 0
91 188 91 220 0 25 -29 6 -35 -22z"/>
<path d="M4206 4293 c45 -146 60 -260 44 -337 -12 -58 -18 -64 -38 -44 -21 21
-58 -7 -97 -74 -93 -154 -170 -212 -300 -224 -154 -14 -266 30 -425 166 -116
100 -165 130 -216 130 -42 0 -43 1 -50 36 -4 20 -4 71 -1 112 8 101 54 196
110 225 37 19 37 19 79 -2 51 -25 72 -12 30 18 -38 27 -97 27 -139 2 -100 -61
-146 -302 -82 -426 78 -153 522 -327 731 -285 98 19 136 42 300 179 86 72 114
115 129 195 18 98 -35 367 -74 374 -15 3 -15 0 -1 -45z"/>
<path d="M2965 4133 c-128 -146 -238 -296 -335 -461 -31 -53 -40 -76 -32 -84
8 -8 16 -2 29 21 94 168 229 357 361 507 73 82 85 104 61 104 -4 0 -42 -39
-84 -87z"/>
<path d="M4336 4152 c-3 -5 27 -53 66 -108 147 -204 368 -574 368 -616 0 -19
15 -24 24 -9 8 13 -135 294 -204 401 -95 145 -233 340 -241 340 -4 0 -10 -4
-13 -8z"/>
<path d="M2312 4057 c-20 -23 -41 -127 -52 -247 -12 -145 -13 -140 4 -140 10
0 16 22 20 83 10 126 26 228 42 266 15 36 6 62 -14 38z"/>
<path d="M3700 2755 c-8 -2 -76 -13 -150 -25 -128 -21 -162 -31 -147 -46 3 -4
79 6 169 21 342 57 527 29 595 -90 13 -22 24 -44 26 -49 2 -5 8 -6 14 -3 8 5
9 16 2 35 -17 49 -67 100 -127 128 -54 27 -65 28 -212 30 -85 2 -162 1 -170
-1z"/>
</g>
</svg>
