<?xml version="1.0" standalone="no"?>
<!DOCTYPE svg PUBLIC "-//W3C//DTD SVG 20010904//EN"
 "http://www.w3.org/TR/2001/REC-SVG-20010904/DTD/svg10.dtd">
<svg version="1.0" xmlns="http://www.w3.org/2000/svg"
 width="2515.000000pt" height="2418.000000pt" viewBox="0 0 2515.000000 2418.000000"
 preserveAspectRatio="xMidYMid meet">

<g transform="translate(0.000000,2418.000000) scale(0.100000,-0.100000)"
fill="#000000" stroke="none">
<path d="M14400 14820 c-60 -11 -94 -27 -230 -103 -264 -147 -785 -504 -1452
-992 l-177 -130 -30 -92 c-57 -169 -78 -338 -51 -409 10 -25 13 -26 56 -20
106 14 407 155 914 426 679 363 964 506 1121 561 56 20 84 23 234 23 214 1
307 -6 1055 -78 74 -7 206 -14 292 -15 148 -2 160 -1 205 23 58 29 182 117
272 193 92 77 362 325 359 329 -2 1 -134 21 -293 44 -160 22 -335 47 -390 55
-845 123 -1745 212 -1885 185z"/>
<path d="M7395 14410 c-581 -6 -656 -9 -705 -25 -181 -58 -517 -292 -585 -409
-47 -80 -34 -98 89 -121 228 -44 650 -65 1461 -74 l650 -7 140 -38 c403 -106
1329 -460 1653 -632 57 -30 111 -54 121 -54 25 0 49 29 70 85 l18 48 55 -89
c308 -499 433 -895 399 -1265 -22 -247 -40 -597 -48 -964 -10 -419 -10 -1342
-1 -1500 14 -234 50 -654 78 -925 l28 -275 1 145 c1 205 19 735 31 925 16 256
21 313 41 445 68 450 82 756 81 1875 0 876 -1 903 -22 1025 -50 294 -161 505
-365 698 -46 44 -129 108 -184 143 -94 61 -100 66 -105 105 -4 22 -19 67 -35
100 -31 67 -4 47 -333 232 -159 89 -705 360 -845 420 -68 28 -178 71 -245 94
l-123 43 -335 1 c-184 0 -627 -2 -985 -6z"/>
<path d="M14370 13704 c-268 -35 -483 -112 -688 -247 -222 -146 -420 -361
-556 -602 -31 -55 -56 -103 -56 -107 0 -4 62 46 138 113 492 432 992 690 1336
689 128 -1 379 -45 651 -115 255 -66 534 -157 1080 -350 40 -14 -83 87 -211
174 -135 91 -368 212 -534 276 -161 63 -469 138 -650 159 -63 8 -467 15 -510
10z"/>
<path d="M8385 13513 c-512 -30 -888 -133 -1150 -314 -73 -50 -154 -127 -122
-116 48 17 332 91 484 126 422 98 710 141 931 141 215 0 352 -37 604 -162 251
-125 490 -293 786 -550 56 -49 102 -87 102 -83 0 12 -82 158 -123 220 -52 78
-157 203 -238 284 -337 336 -755 486 -1274 454z"/>
<path d="M14290 12810 c-248 -15 -333 -34 -494 -109 -168 -79 -374 -257 -515
-445 -120 -161 -120 -156 -12 -101 245 122 579 233 908 300 l33 7 -33 -69
c-30 -64 -32 -74 -32 -183 0 -93 4 -126 22 -173 41 -110 143 -225 235 -268 41
-18 24 -28 -40 -23 -96 8 -25 -14 133 -41 281 -47 622 -55 831 -19 104 18 239
65 332 116 191 105 406 304 517 481 32 50 41 53 108 38 54 -13 48 6 -22 64
-259 215 -701 366 -1221 415 -159 15 -575 20 -750 10z m1017 -345 c314 -34
850 -112 866 -125 10 -8 -219 -180 -350 -262 -224 -142 -507 -261 -678 -286
-127 -19 -145 -21 -144 -14 0 4 23 25 52 47 66 52 131 148 157 231 38 123 23
279 -36 382 -14 23 -21 42 -15 42 5 0 71 -7 148 -15z m-230 -136 c43 -16 92
-69 104 -111 23 -86 -55 -174 -163 -185 -202 -21 -300 208 -124 288 46 21 139
25 183 8z"/>
<path d="M8025 12770 c-422 -36 -750 -139 -950 -297 l-60 -48 55 -3 55 -3 39
-72 c114 -212 280 -403 446 -512 138 -91 236 -125 445 -156 184 -27 523 -28
695 -2 l55 8 -63 5 -63 5 79 52 c117 77 187 176 218 310 19 79 14 194 -10 262
-9 24 -15 46 -13 48 6 5 232 -74 337 -119 179 -76 410 -201 505 -274 18 -13
35 -24 39 -24 24 0 -125 250 -218 366 -129 161 -290 287 -436 343 -202 78
-834 138 -1155 111z m25 -375 c-94 -187 -66 -416 69 -558 28 -30 51 -56 51
-59 0 -12 -140 26 -235 63 -219 87 -500 291 -739 537 l-48 50 48 6 c43 5 291
22 444 29 30 2 143 4 251 5 l197 2 -38 -75z m222 -77 c48 -14 105 -75 113
-122 15 -79 -58 -163 -151 -174 -56 -6 -139 33 -171 81 -48 71 -20 167 60 206
47 24 92 26 149 9z"/>
<path d="M14175 11775 c17 -8 37 -14 45 -14 8 0 -1 7 -20 14 -46 18 -64 17
-25 0z"/>
<path d="M8880 11704 l-45 -14 40 6 c22 3 47 10 55 15 21 12 3 10 -50 -7z"/>
<path d="M12112 7759 c-115 -19 -226 -75 -297 -149 -21 -22 -31 -45 -39 -97
l-11 -67 -57 -32 c-163 -92 -333 -114 -460 -61 -18 8 -68 44 -111 81 -277 235
-574 336 -947 323 -184 -7 -202 -11 -239 -48 -54 -53 -47 -139 14 -187 36 -28
83 -28 182 1 69 19 100 22 263 21 174 0 190 -2 265 -27 108 -36 203 -92 305
-178 91 -76 190 -129 278 -148 225 -47 546 46 709 206 100 99 163 123 322 123
147 0 466 -48 574 -85 88 -31 162 -11 192 51 34 72 5 142 -73 175 -175 75
-670 131 -870 98z"/>
<path d="M11355 5414 c-27 -3 -189 -16 -360 -31 -275 -24 -367 -27 -807 -29
-276 -1 -536 -7 -585 -13 -73 -9 -103 -8 -168 5 -112 22 -275 23 -346 1 -70
-21 -124 -75 -134 -135 -9 -54 5 -77 62 -99 59 -22 251 -24 503 -5 253 19 763
40 1445 59 538 14 700 15 1225 5 734 -15 2177 -16 2274 -2 74 11 123 29 118
45 -1 6 -91 41 -200 79 l-197 70 -275 12 c-151 7 -372 17 -490 22 -212 10
-1968 23 -2065 16z"/>
<path d="M11105 4289 c-177 -13 -611 -58 -752 -79 l-123 -18 -73 -59 c-134
-111 -187 -199 -172 -282 5 -26 23 -52 65 -93 76 -74 202 -135 545 -263 521
-195 747 -294 984 -434 227 -135 311 -162 495 -162 189 0 316 31 513 126 338
161 635 459 723 725 32 95 26 193 -15 252 -65 92 -185 150 -399 193 -134 27
-243 37 -617 60 -140 9 -324 22 -409 30 -168 16 -563 18 -765 4z"/>
<path d="M6350 3498 c-313 -245 -762 -607 -853 -688 -5 -4 56 -64 136 -134
518 -454 1082 -856 1677 -1196 179 -102 597 -315 785 -399 293 -132 809 -331
822 -317 3 3 -7 54 -24 113 l-30 108 -229 115 c-126 63 -287 152 -359 197
-727 457 -1239 1070 -1554 1861 -23 57 -53 127 -67 155 -31 62 -173 277 -183
276 -3 0 -58 -41 -121 -91z"/>
<path d="M16934 3132 c-34 -42 -107 -126 -162 -185 -56 -60 -170 -193 -254
-295 -405 -495 -690 -783 -973 -982 -121 -85 -280 -173 -381 -209 -45 -17
-151 -72 -236 -122 -84 -51 -259 -146 -388 -212 -129 -65 -239 -122 -245 -127
-23 -18 -318 -170 -427 -220 l-117 -53 -16 -53 c-8 -30 -22 -79 -31 -109 -8
-30 -14 -61 -12 -69 2 -11 52 -2 233 44 1228 307 2369 855 3420 1644 132 99
432 340 508 408 l49 43 -49 34 c-100 72 -402 271 -503 333 -98 60 -349 208
-353 208 -1 0 -30 -35 -63 -78z"/>
<path d="M9162 773 l3 -97 60 -19 c334 -104 796 -209 1185 -271 447 -71 751
-96 1248 -103 428 -6 671 3 1012 38 194 19 529 65 536 72 3 2 7 34 11 71 5 55
3 66 -9 66 -9 0 -69 -13 -134 -30 -297 -74 -503 -95 -964 -94 -470 0 -844 30
-1385 109 -682 100 -1037 178 -1469 325 -50 16 -91 30 -93 30 -2 0 -2 -44 -1
-97z"/>
</g>
</svg>
